# xmcd CD database file
# Copyright (C) 1993-1996 Ti Kan
#
# Track frame offsets:
# 150
# 20395
# 32887
# 48225
# 60102
# 74272
# 87962
# 100145
# 112572
# 124440
# 139845
# 155882
# 168360
#
# Disc length: 2408 seconds
#
# Revision: 0
# Processed by: cddbd v1.4b41PL1 Copyright (c) Steve Scherf et al.
# Submitted via: inCDius 1.1b5
#
DISCID=a509660d
DTITLE=Ray Price - Hall Of Fame
DYEAR=1900
DGENRE=
TTITLE0=Take Back Your Old Love Letters
TTITLE1=The Way It Was
TTITLE2=Love Me Down To Size
TTITLE3=Something Left To Lose
TTITLE4=Leaving's Not The Way To Go
TTITLE5=Let Me Talk To You
TTITLE6=Don't Worry I'm Not Staying Very Long
TTITLE7=Misty Morning Rain
TTITLE8=Now She's In Paris
TTITLE9=Back To The Wall
TTITLE10=There's A Star Spangled Banner Waving Somewhere
TTITLE11=I'm Not Crazy Yet
TTITLE12=Over
EXTD=
EXTT0=
EXTT1=
EXTT2=
EXTT3=
EXTT4=
EXTT5=
EXTT6=
EXTT7=
EXTT8=
EXTT9=
EXTT10=
EXTT11=
EXTT12=
PLAYORDER=
